<svg xmlns="http://www.w3.org/2000/svg" xmlns:xlink="http://www.w3.org/1999/xlink" width="54" height="54" viewBox="0 0 54 54"><defs><filter id="Elipse_1" width="54" height="54" x="0" y="0" filterUnits="userSpaceOnUse"><feOffset dy="3" input="SourceAlpha"/><feGaussianBlur result="blur" stdDeviation="3"/><feFlood flood-opacity=".161"/><feComposite in2="blur" operator="in"/><feComposite in="SourceGraphic"/></filter><clipPath id="clip-path"><rect id="Retângulo_13" width="26.821" height="27.282" fill="none" data-name="Retângulo 13"/></clipPath></defs><g id="Chat_avatar" transform="translate(9 6)"><g filter="url(#Elipse_1)" transform="matrix(1, 0, 0, 1, -9, -6)"><circle id="Elipse_1-2" cx="18" cy="18" r="18" fill="#fff" data-name="Elipse 1" transform="translate(9 6)"/></g><g id="Grupo_17" data-name="Grupo 17" transform="translate(4.55 4.55)"><g id="Grupo_14" data-name="Grupo 14" transform="translate(0 0)"><g id="Grupo_13" clip-path="url(#clip-path)" data-name="Grupo 13"><path id="Caminho_1" d="M27.471,5.074l4.158,4.178-1.322,1.316L26.149,6.39Z" data-name="Caminho 1" transform="translate(-18.018 -3.496)"/><path id="Caminho_2" fill="#bc8a69" d="M26.208,4.19a.93.93,0,0,1,.661.275l4.158,4.178A.933.933,0,0,1,29.7,9.958L25.547,5.781a.933.933,0,0,1,.661-1.591Z" data-name="Caminho 2" transform="translate(-17.416 -2.887)"/></g></g><path id="Caminho_3" d="M14.133,11.9l8.038,8.038-1.319,1.319-8.038-8.038Z" data-name="Caminho 3" transform="translate(-8.83 -8.199)"/><path id="Caminho_4" fill="#bba064" d="M12.868,11.02a.93.93,0,0,1,.66.273l8.038,8.038a.933.933,0,0,1-1.319,1.319l-8.038-8.038a.933.933,0,0,1,.66-1.592Z" data-name="Caminho 4" transform="translate(-8.224 -7.594)"/><g id="Grupo_16" data-name="Grupo 16" transform="translate(0 0)"><g id="Grupo_15" clip-path="url(#clip-path)" data-name="Grupo 15"><path id="Caminho_5" fill="#bc8a69" d="M17.55,34.754a6.558,6.558,0,0,1-3.091-.8c-1.792-.961-8.34-8.114-9.081-8.927A.933.933,0,0,1,6.757,23.77C9.472,26.748,14.2,31.7,15.341,32.31a3.945,3.945,0,0,0,4.693-.4A3.166,3.166,0,0,0,21.1,29.606c-.012-1.223-.785-2.585-2.3-4.047l.574-.742.653-.666c1.955,1.89,2.92,3.7,2.936,5.438a5,5,0,0,1-1.6,3.639A5.311,5.311,0,0,1,17.55,34.754Z" data-name="Caminho 5" transform="translate(-3.538 -16.17)"/><path id="Caminho_6" fill="#cf6a49" d="M11.025,48.9a.929.929,0,0,1-.375-.079,18.9,18.9,0,0,1-3.307-1.912A83.1,83.1,0,0,1,.575,40.128l-.324-.348a.933.933,0,0,1,1.363-1.273l.327.351c1.269,1.364,5.13,5.513,6.526,6.568A17.256,17.256,0,0,0,11.4,47.118a.933.933,0,0,1-.376,1.787Z" data-name="Caminho 6" transform="translate(0 -26.33)"/><path id="Caminho_7" fill="#a14c40" d="M14.339,67.248h0c-7.955,0-12.955-7.485-13.164-7.8A.933.933,0,0,1,2.732,58.42c.046.07,4.669,6.961,11.6,6.963h0c6.518,0,9.712-6.566,9.743-6.632a.933.933,0,1,1,1.685.8C25.618,59.866,22.022,67.248,14.339,67.248Z" data-name="Caminho 7" transform="translate(-0.703 -39.967)"/><path id="Caminho_8" fill="#a14c40" d="M66.319,17.582A.934.934,0,0,1,65.4,16.5a12.849,12.849,0,0,0-.872-6.531c-1.431-3.119-5.268-5.98-5.306-6.009a.933.933,0,1,1,1.109-1.5c.173.128,4.263,3.179,5.893,6.731A14.555,14.555,0,0,1,67.238,16.8.932.932,0,0,1,66.319,17.582Z" data-name="Caminho 8" transform="translate(-40.545 -1.57)"/><path id="Caminho_9" fill="#cf6a49" d="M42.118,22.677a.933.933,0,0,1-.267-1.827c4.436-1.325,5.513-3.9,5.981-6.235a8.179,8.179,0,0,0-1-5.729c-1-1.671-5.649-5.794-7.357-7.242A.933.933,0,1,1,40.684.221c.653.553,6.415,5.47,7.752,7.708a10.067,10.067,0,0,1,1.225,7.052c-.543,2.715-1.861,6.039-7.276,7.657A.933.933,0,0,1,42.118,22.677Z" data-name="Caminho 9" transform="translate(-26.976 0)"/></g></g></g></g></svg>